<?xml version="1.0" encoding="UTF-8" standalone="no"?>
<svg width="169px" height="30px" viewBox="0 0 169 30" version="1.1" xmlns="http://www.w3.org/2000/svg" xmlns:xlink="http://www.w3.org/1999/xlink" xmlns:sketch="http://www.bohemiancoding.com/sketch/ns">
    <!-- Generator: Sketch 3.0.1 (7597) - http://www.bohemiancoding.com/sketch -->
    <title>lewoer-logo</title>
    <description>Created with Sketch.</description>
    <defs></defs>
    <g id="Page-1" stroke="none" stroke-width="1" fill="none" fill-rule="evenodd" sketch:type="MSPage">
        <g id="Artboard-4" sketch:type="MSArtboardGroup" transform="translate(-11.000000, -5.000000)">
            <g id="lewoer-logo" sketch:type="MSLayerGroup" transform="translate(10.000000, 2.000000)">
                <g id="Imported-Layers" transform="translate(1.000000, 3.000000)" fill="#5C6973" sketch:type="MSShapeGroup">
                    <path d="M49.3125,2.77777778 L49.3125,1 L45.6875,1 L45.6875,2.77777778 L33,2.77777778 L33,9 L36.625,9 L36.625,6.33333333 L58.375,6.33333333 L58.375,9 L62,9 L62,2.77777778 L49.3125,2.77777778" id="Fill-1"></path>
                    <path d="M33,19 L33,29.9993518 L36.625,29.9993518 L36.625,21.7498379 L45.9729687,21.7498379 L40.25,24.4996759 L41.15625,28.1661265 C41.15625,28.1661265 45.676625,24.838615 47.5,24.8367818 C49.5155,24.8340319 53.84375,28.1661265 53.84375,28.1661265 L54.75,24.4996759 C52.368375,23.3245785 49.0533125,21.7498379 49.0533125,21.7498379 L58.375,21.7498379 L58.375,25.4162885 C58.375,26.3329012 57.46875,26.3329012 57.46875,26.3329012 L58.375,26.3329012 L56.5625,26.3329012 L56.5625,29.9993518 C56.5625,29.9993518 57.5856562,29.9874358 58.2898125,29.9993518 C60.0017188,30.0277668 62,29.1258199 62,26.5409723 L62,19" id="Fill-2"></path>
                    <path d="M2.38893661,27 L0,23.883342 L6.69496316,19 L10,20.5877921 L2.38893661,27 Z" id="Fill-3"></path>
                    <path d="M24.4137931,3.61512571 L8.27586207,6.32400142 L6.38772414,13.5810795 L13.6551724,13.5810795 L13.6551724,7.23869845 L17.2413793,7.23869845 L17.2413793,13.54767 L28,13.54767 L28,17.1595043 L17.2413793,17.1595043 L17.2413793,25.7249693 C17.2413793,27.4135018 15.9243448,29 14.5884828,29 L9.20917241,29 L9.20917241,25.3881657 L13.6551724,25.3881657 L13.6551724,17.1595043 L2,17.1595043 L5.62296552,2.96770442 L19.9310345,0 L24.4137931,3.61512571 Z" id="Fill-4"></path>
                    <path d="M30,24.4222782 L26.8363221,27 L20,20.6054082 L23.4821808,19 L30,24.4222782 Z" id="Fill-5"></path>
                    <path d="M39,17 L56,17 L56,9 L39,9 L39,17 Z M43,12 L52,12 L52,15 L43,15 L43,12 Z" id="Fill-6"></path>
                    <path d="M58,9.33806566 L56.2857143,12 L52,6.67613132 L53.4845714,5 L58,9.33806566" id="Fill-7"></path>
                    <path d="M37,9.33806566 L38.7142857,12 L43,6.67613132 L41.5154286,5 L37,9.33806566" id="Fill-8"></path>
                </g>
                <path d="M151,18.7862601 C151,21.9933132 155.499514,27 155.499514,27 C155.499514,27 160,21.9933132 160,18.7862601 C160,16.5271454 158.365582,14 155.499514,14 C152.709329,14 151,16.1421748 151,18.7862601 Z M155.5,21 C154.119221,21 153,19.8828062 153,18.5030414 C153,17.121249 153.948905,16 155.5,16 C157.09266,16 158,17.3209651 158,18.5030414 C158,19.8807786 156.881792,21 155.5,21 Z M152.907982,28 C153.952337,28 155.223799,30.021647 155.223799,30.021647 L155.567539,30.0216471 C155.567539,30.0216471 157.009877,28 158.081522,28 L167,28 L165.950397,32 L145.048554,32 L144,28 L152.907982,28 Z M155.5,4 L141,13.3756335 L142.813,19 C142.813,19 151.854,11.8714778 155.5,11.8684371 C159.531,11.8633691 168.188,19 168.188,19 L170,13.3756335 C165.236,10.9704034 155.5,4 155.5,4 Z" id="Fill-9" fill="#CC5133" sketch:type="MSShapeGroup"></path>
                <path d="M90,5 L90,22.6587678 C90,25.6445647 89.0291193,27.9478592 87.0873288,29.5687204 C85.1455382,31.1895816 82.6044678,32 79.4640411,32 C76.3356008,32 73.809513,31.1895816 71.8857021,29.5687204 C69.9618911,27.9478592 69,25.6445647 69,22.6587678 L69,5 L74.2679795,5 L74.2679795,22.6587678 C74.2679795,24.4136851 74.7294474,25.7268067 75.6523973,26.598172 C76.5753471,27.4695372 77.8458823,27.9052133 79.4640411,27.9052133 C81.1061726,27.9052133 82.3946871,27.4725839 83.3296233,26.6073121 C84.2645595,25.7420404 84.7320205,24.4258721 84.7320205,22.6587678 L84.7320205,5 L90,5 Z M107.804905,24.7723632 C107.804905,23.7630123 107.452046,22.951939 106.746316,22.3391188 C106.040586,21.7262987 104.804095,21.1495354 103.036805,20.6088117 C99.9529432,19.7076056 97.6222905,18.6381904 96.0447767,17.400534 C94.4672629,16.1628777 93.6785179,14.4686356 93.6785179,12.317757 C93.6785179,10.1668784 94.582906,8.40955288 96.3917094,7.04572764 C98.2005128,5.68190239 100.510409,5 103.321468,5 C106.168109,5 108.486901,5.7660137 110.277913,7.29806409 C112.068925,8.83011447 112.934765,10.7196149 112.87546,12.9666222 L112.839877,13.0747664 L107.804905,13.0747664 C107.804905,11.8611421 107.404602,10.8788422 106.603985,10.1278371 C105.803367,9.37683203 104.679553,9.00133511 103.23251,9.00133511 C101.844773,9.00133511 100.771368,9.31374854 100.012263,9.93858478 C99.253159,10.563421 98.8736125,11.3624784 98.8736125,12.335781 C98.8736125,13.2249711 99.2798459,13.9549371 100.092325,14.5257009 C100.904804,15.0964648 102.307347,15.7002638 104.299996,16.3371162 C107.158498,17.1421936 109.323099,18.2056009 110.793864,19.5273698 C112.264629,20.8491388 113,22.5854365 113,24.7363151 C113,26.9833223 112.125264,28.7556677 110.375766,30.0534045 C108.626267,31.3511413 106.316371,32 103.446007,32 C100.623088,32 98.1619662,31.2640261 96.0625682,29.7920561 C93.9631701,28.3200861 92.9431389,26.2563551 93.0024439,23.6008011 L93.0380268,23.4926569 L98.09079,23.4926569 C98.09079,25.0547475 98.562258,26.1992621 99.5052079,26.926235 C100.448158,27.6532079 101.761745,28.0166889 103.446007,28.0166889 C104.857467,28.0166889 105.936803,27.7222993 106.684046,27.1335113 C107.431289,26.5447234 107.804905,25.7576818 107.804905,24.7723632 Z M130.023865,25.3928571 L120.976135,25.3928571 L119.223249,31 L114,31 L122.87067,5 L128.164742,5 L137,31 L131.776751,31 L130.023865,25.3928571 Z M123,21 L129,21 L126.057221,11 L125.959128,11 L123,21 Z" id="USA" fill="#5C6973" sketch:type="MSShapeGroup"></path>
            </g>
        </g>
    </g>
</svg>